<svg width="775" height="521" viewBox="0 0 775 521" fill="none" xmlns="http://www.w3.org/2000/svg">
<path d="M710.625 362.322C712.596 331.635 721.927 298.421 706.584 271.754C690.339 243.528 652.262 234.142 634.818 206.638C619.18 182.006 624.272 150.334 623.171 121.19C621.479 76.3405 602.195 32.9354 571.773 0H0V512H775C774.31 511.426 773.604 510.868 772.93 510.277C730.83 474.125 707.061 417.674 710.609 362.322H710.625Z" fill="#AFB5D9"/>
<path d="M294.257 363.143C296.78 363.908 299.428 364.331 302.23 364.331C326.637 364.29 351.044 364.331 375.45 364.331H473.987C481.867 347.164 484.298 327.826 486.48 309.067C487.948 296.437 486.904 281.316 476.2 274.464C466.841 268.469 454.369 271.673 443.716 268.5C431.11 264.738 422.671 252.222 420.065 239.333C417.459 226.445 419.651 213.112 422.112 200.193C424.574 187.273 427.304 174.137 425.742 161.073C423.405 141.518 410.84 123.472 393.3 114.501C375.761 105.529 353.764 105.881 336.524 115.42C316.388 126.562 307.081 146.541 298.518 166.757C289.469 188.141 286.676 207.841 266.324 222.765C259.136 228.037 250.883 232.088 245.082 238.858C234.616 251.054 234.595 269.089 238.101 284.768C242.848 305.925 253.2 325.738 267.575 341.945C275.187 350.533 283.574 359.897 294.257 363.153V363.143Z" fill="white"/>
<path d="M434.036 211.365C435.99 197.206 437.934 183.046 439.889 168.886C440.985 160.928 442.144 152.773 445.991 145.724C449.838 138.675 457.005 132.856 465.04 132.98C471.266 133.073 477.047 136.732 480.946 141.59C484.845 146.448 487.089 152.411 488.826 158.396C494.804 178.974 495.362 201.092 490.429 221.938C487.709 233.432 482.901 245.152 473.396 252.17C463.427 259.539 448.897 259.105 440.447 249.689C431.067 239.23 432.257 224.243 434.036 211.355V211.365Z" fill="white"/>
<path d="M280.036 178.529C281.328 174.437 282.3 170.158 281.959 165.879C281.618 161.6 279.808 157.28 276.385 154.685C271.286 150.799 263.727 151.647 258.328 155.109C252.93 158.572 249.269 164.122 246.063 169.682C243.043 174.922 240.251 180.39 238.948 186.291C237.645 192.193 237.934 198.642 240.84 203.945C255.515 230.765 275.868 191.759 280.046 178.54L280.036 178.529Z" fill="white"/>
<path d="M291.474 150.396C291.898 150.272 292.301 150.117 292.705 149.931C296.573 148.132 299.096 143.657 298.455 139.409C297.193 131.131 286.924 131.926 282.063 136.608C275.217 143.213 282.942 152.939 291.484 150.396H291.474Z" fill="white"/>
<path d="M491.174 368.074C491.174 370.213 489.436 371.939 487.306 371.939H477.14C472.527 371.939 468.132 373.83 464.957 377.179L464.399 377.768C461.234 381.117 456.829 383.008 452.216 383.008H439.454C435.214 383.008 431.129 384.61 428.027 387.504C424.924 390.398 420.839 392 416.599 392H377.414C373.174 392 369.089 390.398 365.986 387.504C362.884 384.61 358.799 383.008 354.559 383.008H313.481C308.869 383.008 304.473 381.117 301.298 377.768L300.74 377.179C297.575 373.83 293.17 371.939 288.557 371.939H278.391C276.251 371.939 274.523 370.203 274.523 368.074C274.523 365.934 276.261 364.208 278.391 364.208H487.306C489.447 364.208 491.174 365.944 491.174 368.074Z" fill="#302E47"/>
<path d="M418.417 215.789C420.579 212.657 420.206 208.296 418.459 204.926C416.701 201.547 413.784 198.942 410.878 196.482C407.972 194.012 404.973 191.542 402.967 188.307C399.316 182.416 399.678 174.302 403.846 168.773C405.924 166.013 408.779 163.936 410.971 161.269C415.491 155.791 416.825 147.854 414.332 141.197C411.84 134.541 405.625 129.425 398.613 128.268C391.601 127.1 384.062 129.932 379.553 135.42C372.944 129.384 361.599 126.852 353.161 129.849C344.722 132.846 338.217 140.722 336.893 149.58C335.817 156.732 337.824 164.473 334.711 170.995C329.943 181 315.61 183.232 310.346 192.989C307.057 199.066 308.184 206.57 310.263 213.153C312.352 219.748 315.33 226.207 315.568 233.111C315.796 239.84 313.479 247.095 316.726 252.987C319.994 258.909 327.451 260.831 334.111 262.02C347.928 264.48 362.551 266.206 375.685 261.255C385.179 257.679 393.163 250.827 399.544 242.941C405.924 235.054 412.647 224.14 418.417 215.799V215.789Z" fill="#383659"/>
<path d="M310.263 213.143C308.174 206.549 307.057 199.056 310.346 192.979C311.462 190.911 312.993 189.185 314.751 187.645C311.597 194.084 311.711 202.229 315.744 208.213C318.991 213.029 324.255 216.368 326.841 221.567C329.633 227.189 328.816 234.021 331.246 239.809C334.008 246.393 340.916 250.775 348.031 251.395C355.157 252.005 362.313 249.183 367.784 244.594C372.624 240.532 376.223 235.21 380.225 230.321C384.227 225.432 388.943 220.76 394.941 218.745C398.282 217.629 401.87 217.391 405.201 216.254C408.531 215.107 411.788 212.688 412.388 209.216C413.288 204.089 408.313 200.1 405.418 195.779C403.773 193.32 402.832 190.467 402.543 187.542C402.687 187.8 402.822 188.069 402.987 188.317C404.994 191.552 407.993 194.022 410.899 196.493C413.805 198.963 416.721 201.567 418.479 204.937C420.237 208.306 420.61 212.668 418.438 215.799C412.667 224.14 405.945 235.054 399.564 242.941C393.183 250.827 385.199 257.679 375.706 261.255C362.572 266.206 347.948 264.48 334.132 262.02C327.472 260.831 320.005 258.919 316.747 252.987C313.5 247.095 315.816 239.83 315.589 233.111C315.351 226.207 312.373 219.737 310.283 213.153L310.263 213.143Z" fill="#302E47"/>
<path d="M396.834 132.257C390.588 131.988 384.279 134.934 380.463 139.885C375.085 135.988 368.332 133.487 361.724 132.846C355.105 132.216 348.083 134.128 343.367 138.81C340.264 141.9 338.32 145.983 337.151 150.2C336.945 150.965 336.769 151.729 336.603 152.494C336.655 151.502 336.738 150.52 336.883 149.549C338.206 140.691 344.711 132.815 353.15 129.818C361.589 126.821 372.934 129.353 379.543 135.389C384.052 129.901 391.591 127.069 398.602 128.237C405.614 129.405 411.83 134.521 414.322 141.166C415.387 144.009 415.749 147.089 415.47 150.107C415.191 146.965 414.188 143.874 412.481 141.218C409.099 135.957 403.07 132.495 396.813 132.226L396.834 132.257Z" fill="#57587D"/>
<path d="M406.524 157.062C406.359 154.82 405.738 152.349 404.518 150.034C403.308 147.719 401.508 145.58 399.264 144.071C397.02 142.572 394.352 141.725 391.756 141.487C389.15 141.239 386.637 141.621 384.496 142.314C386.306 140.98 388.902 139.978 391.798 139.874C394.683 139.75 397.847 140.526 400.464 142.283C403.08 144.04 405.004 146.665 405.997 149.373C407.01 152.091 407.072 154.871 406.524 157.052V157.062Z" fill="#57587D"/>
<path d="M398.592 151.202C398.106 150.179 397.455 149.073 396.617 148.029C395.779 146.985 394.755 146.003 393.597 145.218C392.439 144.432 391.156 143.833 389.874 143.44C388.592 143.037 387.33 142.851 386.192 142.768C387.289 142.489 388.643 142.407 390.06 142.655C391.467 142.892 392.935 143.461 394.207 144.329C395.479 145.197 396.544 146.355 397.279 147.574C398.023 148.794 398.437 150.086 398.582 151.213L398.592 151.202Z" fill="#57587D"/>
<path d="M345.88 157.269C348.052 156.845 350.472 156.236 352.923 155.285C355.374 154.344 357.845 153.083 360.141 151.543C362.437 150.003 364.537 148.184 366.336 146.283C368.136 144.37 369.625 142.376 370.835 140.515C370.266 142.644 369.18 145.032 367.556 147.285C365.933 149.538 363.782 151.636 361.32 153.29C358.859 154.944 356.098 156.143 353.398 156.794C350.699 157.455 348.083 157.559 345.89 157.269H345.88Z" fill="#57587D"/>
<path d="M346.8 146.024C350.048 146.065 354.164 145.786 358.125 144.722C362.096 143.688 365.809 141.9 368.611 140.257C367.525 141.466 366.077 142.706 364.34 143.75C362.613 144.805 360.607 145.662 358.518 146.221C356.429 146.768 354.257 147.016 352.23 146.954C350.203 146.903 348.331 146.541 346.79 146.024H346.8Z" fill="#57587D"/>
<path d="M326.262 243.178L320.294 263.053L294.037 255.839L309.88 219.996C313.707 211.334 322.425 205.867 331.898 206.177L354.588 206.942C355.87 210.745 358.58 214.084 362.106 216.027C366.512 218.456 372.076 218.652 376.636 216.544C380.38 214.817 383.379 211.572 384.889 207.738L403.691 206.559C413.36 205.95 422.399 211.407 426.35 220.254L431.986 232.853L415.377 250.992V319.92L320.294 324.509C320.294 311.062 327.399 297.057 332.239 289.099C334.969 284.603 335.745 279.187 334.401 274.092L326.262 243.178Z" fill="#E4E3FE"/>
<path d="M326.262 243.178L327.689 244.026C331.319 246.186 334.049 249.586 335.362 253.596L337.4 259.818L332.032 265.1L326.262 243.189V243.178Z" fill="#D2D0FA"/>
<path d="M353.998 216.409C356.17 217.939 358.797 219.386 361.755 220.347C364.712 221.319 367.98 221.804 371.217 221.608C374.454 221.401 377.64 220.512 380.453 219.179C383.276 217.856 385.696 216.099 387.661 214.311C386.368 216.626 384.227 219.024 381.373 220.833C378.539 222.662 375.013 223.902 371.372 224.13C367.732 224.357 364.082 223.561 361.041 222.104C357.99 220.657 355.57 218.538 353.988 216.409H353.998Z" fill="#D2D0FA"/>
<path d="M358.414 224.626C361.093 225.597 364.609 226.466 368.187 226.538C371.776 226.641 375.323 225.949 378.043 225.112C376.874 225.928 375.375 226.672 373.658 227.168C371.952 227.675 370.049 227.933 368.146 227.892C366.243 227.84 364.35 227.489 362.675 226.9C360.989 226.311 359.531 225.494 358.404 224.626H358.414Z" fill="#D2D0FA"/>
<path d="M320.78 209.577C322.539 211.169 324.307 213.34 325.724 215.944C327.151 218.549 328.216 221.567 328.764 224.688C329.302 227.809 329.323 231.013 328.857 233.949C328.402 236.884 327.482 239.519 326.365 241.607C326.768 239.271 327.11 236.615 327.182 233.794C327.254 230.972 327.058 228.006 326.551 225.081C326.034 222.156 325.217 219.293 324.204 216.668C323.19 214.032 321.97 211.655 320.801 209.588L320.78 209.577Z" fill="#D2D0FA"/>
<path d="M298.711 251.715C304.647 252.408 313.851 254.992 319.271 257.503C313.334 256.811 304.13 254.227 298.711 251.715Z" fill="#D2D0FA"/>
<path d="M394.259 207.159L399.337 237.959H394.838L391.012 207.366L394.259 207.159Z" fill="#8484BA"/>
<path d="M350.11 206.797L352.468 238.517H347.607L346.583 206.673L350.11 206.797Z" fill="#8484BA"/>
<path d="M399.337 237.959H394.838L394.455 234.889L398.82 234.858L399.337 237.959Z" fill="#616193"/>
<path d="M352.23 235.23L352.468 238.517H347.607L347.504 235.272L352.23 235.23Z" fill="#616193"/>
<path d="M415.387 250.475C409.048 248.253 405.004 242.176 403.794 238.713C403.525 237.948 402.812 237.452 402.005 237.463L346.19 238.062C345.373 238.062 344.649 238.61 344.411 239.395C341.205 249.969 330.657 262.537 330.657 262.537L333.346 272.242C334.907 277.895 334.008 283.973 330.781 288.882C320.512 304.52 318.733 319.31 318.733 324.043L320.305 323.992L415.387 319.403V250.475Z" fill="#8484BA"/>
<path d="M345.714 292.789C349.706 292.344 354.215 291.735 358.921 290.742C363.616 289.75 368.508 288.386 373.255 286.629C378.002 284.872 382.604 282.732 386.813 280.428C391.032 278.123 394.848 275.652 398.168 273.399C395.727 276.583 392.397 279.9 388.354 282.846C384.32 285.792 379.584 288.365 374.578 290.215C369.573 292.065 364.309 293.192 359.324 293.574C354.34 293.967 349.644 293.616 345.714 292.789Z" fill="#616193"/>
<path d="M349.179 283.952C354.371 283.487 360.979 282.887 367.494 281.668C374.02 280.479 380.411 278.691 385.427 277.275C383.266 278.722 380.597 280.138 377.609 281.327C374.62 282.515 371.321 283.477 367.949 284.097C364.578 284.717 361.155 284.996 357.939 284.944C354.722 284.903 351.723 284.531 349.189 283.952H349.179Z" fill="#616193"/>
<path d="M396.865 244.108H398.489C399.42 244.108 400.174 243.354 400.174 242.424C400.174 241.493 399.42 240.739 398.489 240.739H396.865C395.934 240.739 395.179 241.493 395.179 242.424C395.179 243.354 395.934 244.108 396.865 244.108Z" fill="#F5D991"/>
<path d="M349.179 244.108H350.803C351.734 244.108 352.488 243.354 352.488 242.424C352.488 241.493 351.734 240.739 350.803 240.739H349.179C348.248 240.739 347.493 241.493 347.493 242.424C347.493 243.354 348.248 244.108 349.179 244.108Z" fill="#F5D991"/>
<path d="M362.603 297.895C369.459 297.585 376.378 298.05 383.141 296.871C383.597 296.789 384.041 296.706 384.507 296.613C393.866 294.629 400.433 286.04 399.74 276.5C398.892 264.831 400.909 252.945 405.552 242.207C407.538 245.359 410.878 248.894 415.398 250.475V319.403L320.315 323.992L318.743 324.043C318.743 321.625 319.208 316.571 321.039 310.122C333.656 302.825 348.031 298.546 362.613 297.895H362.603Z" fill="#616193"/>
<path d="M376.647 216.544C372.086 218.652 366.522 218.456 362.117 216.027C358.59 214.084 355.88 210.756 354.598 206.942L358.28 207.066L358.435 191.749H380.659L381.342 207.965L384.9 207.738C383.39 211.562 380.391 214.807 376.647 216.544Z" fill="#EBAE90"/>
<path d="M358.993 195.645C358.787 195.252 358.59 194.87 358.404 194.508L358.435 191.749H380.659L380.98 199.283C371.455 211.386 362.385 201.95 358.993 195.645Z" fill="#CB8376"/>
<path d="M395.055 178.013C395.81 176.772 396.813 175.635 398.096 174.943C399.378 174.24 400.95 174.013 402.315 174.54C404.321 175.315 405.449 177.558 405.583 179.708C405.8 183.015 403.98 186.384 401.084 188.007C398.189 189.64 394.373 189.454 391.642 187.552C392.718 184.441 393.328 180.834 395.045 178.013H395.055Z" fill="#DF947E"/>
<path d="M401.933 176.679C399.316 178.684 397.465 181.661 396.813 184.896C396.669 185.651 396.669 186.601 397.33 186.974C397.889 187.284 398.592 186.984 399.099 186.591C400.847 185.217 401.467 182.581 400.505 180.566C400.836 179.232 401.105 177.785 401.922 176.679H401.933Z" fill="#CB8376"/>
<path d="M396.989 163.801C397.113 169.589 396.948 175.449 395.376 181.02C393.804 186.591 390.908 191.893 386.534 195.697C382.169 199.5 376.264 201.702 370.514 200.989C365.829 200.41 361.517 197.981 358.032 194.798C354.546 191.614 351.816 187.697 349.313 183.697C348.869 186.322 345.932 188.286 343.274 188.472C340.616 188.669 337.989 187.232 336.386 185.103C334.794 182.963 334.152 180.224 334.245 177.558C334.318 175.501 334.907 173.289 336.562 172.07C338.548 170.612 341.474 171.14 343.429 172.638C345.384 174.147 346.563 176.411 347.617 178.643C348.879 175.315 349.427 171.543 348.983 168.018C361.217 165.114 371.569 154.665 373.834 142.303C389.657 145.125 396.917 160.204 396.999 163.801H396.989Z" fill="#EBAE90"/>
<path d="M339.716 174.778C342.209 176.266 344.018 178.86 344.536 181.713C344.67 182.478 344.691 183.366 344.132 183.914C343.625 184.41 342.808 184.431 342.136 184.204C340.823 183.77 339.82 182.498 339.727 181.113C339.634 179.728 340.44 178.333 341.681 177.723C341.03 176.834 340.368 175.666 339.716 174.778Z" fill="#DF947E"/>
<path d="M376.978 147.058C373.089 157.61 363.006 168.029 348.972 168.029C361.207 165.124 371.559 154.675 373.824 142.314C389.646 145.135 396.906 160.215 396.989 163.812C392.977 155.729 385.624 149.621 376.978 147.058Z" fill="#DF947E"/>
<path d="M356.191 164.049C360.265 163.388 364.34 162.726 368.415 162.065C366.729 160.473 364.226 159.626 361.93 159.946C359.635 160.267 357.39 162.065 356.191 164.06V164.049Z" fill="#383659"/>
<path d="M394.538 166.116C391.032 165.228 387.516 164.339 384.01 163.45C385.189 161.496 387.64 160.504 389.864 160.969C392.087 161.445 394.259 163.853 394.538 166.116Z" fill="#383659"/>
<path d="M360.731 173.021C360.731 174.281 361.744 175.294 363.006 175.294C364.268 175.294 365.281 174.281 365.281 173.021C365.281 171.76 364.268 170.747 363.006 170.747C361.744 170.747 360.731 171.77 360.731 173.021Z" fill="#383659"/>
<path d="M386.999 175.946C388.256 175.946 389.274 174.928 389.274 173.672C389.274 172.416 388.256 171.398 386.999 171.398C385.742 171.398 384.724 172.416 384.724 173.672C384.724 174.928 385.742 175.946 386.999 175.946Z" fill="#383659"/>
<path d="M371.714 180.111C374.248 179.811 376.823 179.821 379.356 180.162C378.405 181.279 377.267 182.209 375.799 182.219C374.33 182.219 372.665 181.217 371.703 180.111H371.714Z" fill="#DF947E"/>
<path d="M364.919 185.93C370.742 185.651 376.595 186.023 382.345 187.015C380.69 190.167 376.957 192.348 373.41 192.141C369.863 191.935 366.212 189.237 364.93 185.93H364.919Z" fill="white"/>
<path d="M368.787 194.56C371.404 195.015 374.082 195.056 376.709 194.684C375.685 195.717 374.392 196.544 372.934 196.524C371.476 196.503 369.78 195.635 368.787 194.57V194.56Z" fill="#DF947E"/>
<path d="M363.709 181.093C363.234 182.943 360.162 183.749 356.853 182.891C353.533 182.043 351.237 179.852 351.702 178.013C352.178 176.163 355.25 175.356 358.559 176.214C361.879 177.062 364.175 179.253 363.709 181.093Z" fill="#E68799"/>
<path d="M386.285 181.351C386.761 183.201 389.14 184.183 391.601 183.552C394.062 182.922 395.676 180.917 395.21 179.067C394.735 177.217 392.356 176.235 389.895 176.865C387.433 177.496 385.82 179.501 386.285 181.351Z" fill="#E68799"/>
<path d="M368.073 253.617C366.284 253.772 366.233 256.862 366.584 260.935C366.926 265.017 367.536 268.531 369.325 268.387C369.666 268.356 369.976 268.211 370.266 267.963C369.242 266.929 368.818 264.108 368.549 260.935C368.27 257.607 368.249 254.93 369.232 253.989C368.859 253.731 368.466 253.596 368.073 253.627V253.617Z" fill="#383659"/>
<path d="M363.751 248.625L393.556 223.675C388.25 238.61 375.282 243.054 369.997 245.442L364.868 250.248L363.761 248.625H363.751Z" fill="#57587D"/>
<path d="M365.105 250.072C366.191 251.498 363.937 253.607 360.679 256.087C357.421 258.568 354.402 260.48 353.305 259.043C353.099 258.775 352.995 258.444 352.985 258.061C354.433 258.123 356.822 256.552 359.355 254.62C362.013 252.594 364.009 250.816 364.061 249.452C364.506 249.555 364.868 249.752 365.105 250.062V250.072Z" fill="#383659"/>
<path d="M369.77 261.865C370.597 261.803 371.445 261.741 372.231 262.02C373.017 262.299 373.73 263.002 373.772 263.87C373.824 264.883 372.965 265.741 372.045 266.03C371.124 266.33 370.131 266.226 369.17 266.237C365.354 266.288 361.796 268.201 358.042 268.893C354.712 269.513 351.237 269.162 348.083 267.89C346.728 267.343 345.384 266.588 344.515 265.358C343.646 264.128 343.388 262.34 344.205 261.069C345.063 259.746 346.769 259.395 348.29 259.281C352.002 259.023 355.767 259.55 359.283 260.811C360.793 261.348 362.148 262.402 363.751 262.33C365.757 262.227 367.763 262.02 369.759 261.865H369.77Z" fill="#DF947E"/>
<path d="M311.514 266.816L339.282 264.149L345.497 256.501C347.328 254.248 350.068 252.925 352.974 252.904C357.266 252.873 362.117 253.111 365.405 254.434C365.995 254.671 366.595 254.93 367.06 255.364C367.525 255.798 367.846 256.439 367.732 257.069C367.577 257.927 366.688 258.475 365.819 258.558C364.95 258.63 364.102 258.34 363.265 258.103C359.004 256.893 354.391 256.925 350.151 258.196C354.764 258.806 359.293 260.232 363.502 262.196C364.681 262.743 365.902 263.395 366.408 264.666C366.574 265.079 366.615 265.534 366.522 265.968C366.222 267.332 364.992 267.611 363.968 267.384C363.327 267.239 362.737 266.919 362.137 266.64C357.835 264.562 352.85 263.911 348.166 264.831C352.778 265.865 357.359 268.5 360.834 271.715C361.393 272.231 361.951 272.8 362.251 273.503C362.551 274.206 362.551 275.084 362.075 275.684C361.631 276.231 360.855 276.428 360.152 276.366C359.448 276.304 358.787 276.004 358.145 275.715C355.053 274.319 351.961 272.924 348.869 271.518C351.496 274.082 354.215 276.614 357.494 278.278C358.238 278.65 359.076 279.105 359.045 280.055C359.035 280.583 358.704 281.048 358.249 281.316C357.277 281.885 356.17 281.616 355.167 281.275C352.457 280.345 349.924 278.877 347.773 276.986C345.063 278.133 342.136 278.484 339.344 277.575L302.817 290.773C299.063 292.127 294.864 291.373 291.823 288.799C288.193 285.73 286.921 280.696 288.638 276.273L296.322 256.501L314.038 261.369L311.483 266.847L311.514 266.816Z" fill="#EBAE90"/>
<path d="M296.343 256.47L314.069 261.338L312.486 264.738L295.96 257.462L296.343 256.47Z" fill="#422C4F"/>
<path d="M297.305 268.18L311.514 266.816L311.949 265.896C302.413 263.209 297.305 268.18 297.305 268.18Z" fill="#DF947E"/>
<path d="M370.059 253.648L368.601 214.817C361.072 228.77 366.47 241.37 368.239 246.889L368.104 253.917L370.059 253.648Z" fill="#57587D"/>
<path d="M370.049 253.607H368.084C368.477 253.576 368.87 253.71 369.242 253.979C370.576 254.909 371.693 257.545 371.962 260.728C372.241 264.035 371.528 266.909 370.287 267.963C369.997 268.211 369.676 268.356 369.346 268.387H371.31C373.1 268.232 374.279 264.8 373.927 260.728C373.586 256.645 371.848 253.472 370.059 253.617L370.049 253.607Z" fill="#57587D"/>
<path d="M363.782 248.604L365.095 250.072C364.857 249.762 364.495 249.566 364.051 249.462C362.468 249.1 359.769 250.041 357.225 251.974C354.588 253.979 352.923 256.449 352.974 258.072C352.985 258.454 353.088 258.785 353.295 259.054L351.982 257.586C350.896 256.16 352.654 252.987 355.912 250.506C359.169 248.026 362.696 247.178 363.782 248.604Z" fill="#57587D"/>
<path d="M469.961 370.471L422.296 370.605L429.845 356.89L462.453 356.797C467.458 356.786 471.988 359.742 473.984 364.331C475.246 367.225 473.125 370.46 469.971 370.471H469.961Z" fill="#9B5342"/>
<path d="M277.324 327.341C275.277 329.025 273.56 331.061 272.205 333.314C272.112 332.86 272.029 332.405 271.957 331.95C270.995 325.925 271.388 319.692 273.063 313.832C274.17 313.098 275.39 312.54 276.673 312.199C275.69 311.91 274.677 311.786 273.674 311.848C274.191 310.318 274.801 308.809 275.494 307.352C277.086 304.003 279.113 300.975 281.513 298.267C283.726 295.776 287.749 297.915 286.911 301.14C286.166 304.013 285.815 306.98 285.97 309.956C286.332 317.181 289.9 324.395 296.001 328.302C302.093 332.209 310.697 332.26 316.333 327.713C316.344 334.214 314.11 342.978 312.455 349.273C308.391 350.409 304.285 351.536 300.118 352.094C299.797 349.262 299.828 346.389 300.211 343.567C298.608 346.275 297.429 349.293 296.736 352.394C296.415 352.415 296.095 352.435 295.774 352.446C293.53 352.497 291.255 352.311 289.052 351.846C288.742 347.03 289.434 342.162 291.079 337.624C288.111 341.428 286.084 345.955 285.174 350.689C283.891 350.182 282.65 349.552 281.502 348.787C281.482 344.539 282.319 340.281 283.984 336.363C281.285 339.03 279.424 342.596 278.565 346.358C276.497 344.26 274.956 341.686 273.86 338.916C274.222 334.875 275.401 330.917 277.355 327.361L277.324 327.341Z" fill="#E59B63"/>
<path d="M307.977 331.051C311.018 330.72 313.934 329.625 316.323 327.702C316.333 334.203 314.1 342.968 312.445 349.262C308.381 350.399 304.275 351.526 300.107 352.084C299.849 349.727 299.828 347.34 300.045 344.983C301.224 345.004 302.413 344.952 303.603 344.808C304.223 340.012 305.723 335.33 307.988 331.061L307.977 331.051Z" fill="#CC7E48"/>
<path d="M285.153 350.668C283.871 350.161 282.63 349.531 281.482 348.766C281.461 345.355 282.009 341.934 283.085 338.699C284.657 339.991 286.384 341.107 288.204 342.017C286.766 344.725 285.732 347.65 285.153 350.658V350.668Z" fill="#CC7E48"/>
<path d="M296.715 352.373C296.394 352.394 296.074 352.415 295.753 352.425C293.509 352.477 291.234 352.291 289.031 351.825C288.835 348.776 289.041 345.696 289.641 342.699C292.723 344.032 296.043 344.808 299.414 344.942C298.204 347.267 297.284 349.789 296.705 352.373H296.715Z" fill="#CC7E48"/>
<path d="M282.412 338.12C280.551 340.508 279.227 343.361 278.545 346.348C276.476 344.249 274.935 341.676 273.839 338.906C274.118 335.795 274.894 332.725 276.125 329.852C276.662 330.917 277.262 331.961 277.914 332.973C279.175 334.896 280.706 336.622 282.412 338.131V338.12Z" fill="#CC7E48"/>
<path d="M272.443 316.282C272.784 320.653 273.829 324.943 275.659 328.881C274.335 330.224 273.177 331.712 272.205 333.314C272.112 332.86 272.029 332.405 271.957 331.95C271.129 326.762 271.316 321.418 272.443 316.282Z" fill="#CC7E48"/>
<path d="M476.269 236.75L457.747 229.05C456.03 228.336 454.696 226.972 453.91 225.287C450.663 218.321 443.32 212.978 435.74 211.903C427.249 210.694 418.231 214.786 413.546 221.97C407.093 231.871 410.671 246.558 410.589 258.371C410.496 270.185 408.634 282.856 400.609 291.528C392.449 300.344 379.718 303.124 367.743 304.21C355.767 305.295 343.357 305.222 332.343 310.049C321.556 314.783 312.931 324.219 309.208 335.392C305.475 346.565 306.705 359.288 312.486 369.541C314.317 372.817 322.787 371.938 322.787 371.938L408.851 371.701C427.839 371.649 463.839 338.069 454.541 307.775C447.105 283.518 446.123 265.668 447.199 255.333C447.571 251.736 450.632 249.028 454.241 249.018L460.984 248.997C464.418 248.997 467.665 247.426 469.806 244.749L476.259 236.719L476.269 236.75Z" fill="#E59B63"/>
<path d="M477.8 234.703C478.193 234.93 478.586 235.189 478.855 235.561C479.124 235.923 479.258 236.419 479.103 236.843C478.927 237.328 478.42 237.618 477.945 237.814C476.321 238.465 474.439 238.486 472.805 237.866C471.585 237.411 469.154 236.098 469.785 234.445C470.426 232.781 473.219 233.246 474.553 233.504C475.69 233.721 476.797 234.124 477.81 234.703H477.8Z" fill="#302E47"/>
<path d="M436.257 225.846C436.743 225.112 437.622 224.45 438.718 224.14C439.815 223.82 441.118 223.851 442.286 224.347C443.455 224.833 444.396 225.742 444.934 226.745C445.482 227.747 445.627 228.843 445.44 229.701C444.592 228.171 443.238 226.745 441.573 226.052C439.908 225.36 437.932 225.38 436.257 225.856V225.846Z" fill="#302E47"/>
<path d="M409.751 308.623C406.876 316.995 404.797 325.635 403.546 334.389C403.442 335.103 402.419 335.113 402.305 334.389C401.116 326.875 402.367 319 405.935 312.271C402.284 316.209 399.057 320.529 396.276 325.118C395.914 325.728 394.972 325.356 395.128 324.664C396.069 320.24 398.365 316.095 401.653 312.995C403.639 311.124 406.359 309.367 408.841 307.868C409.348 307.569 409.947 308.054 409.751 308.613V308.623Z" fill="#CC7E48"/>
<path d="M433.165 251.54C433.082 250.785 434.168 250.558 434.395 251.292L435.967 256.48C436.66 258.764 437.364 261.069 437.581 263.457C437.746 265.183 437.632 266.96 437.126 268.604C436.929 269.224 436.05 269.182 435.905 268.552C434.644 263.022 433.816 257.255 433.165 251.55V251.54Z" fill="#CC7E48"/>
<path d="M430.021 254.372C432.172 261.141 434.333 267.994 434.861 275.084C435.388 282.174 433.868 291.425 429.69 297.171C427.756 299.838 424.902 302.205 421.603 302.184C418.117 302.163 415.253 299.559 412.916 296.975C409.854 293.595 407.072 289.978 404.58 286.164C409.306 278.05 410.537 267.932 410.609 258.371C410.682 249.194 408.541 238.29 410.609 229.236L422.926 228.512C425.605 236.946 427.363 245.927 430.031 254.361L430.021 254.372Z" fill="#9B5342"/>
<path d="M378.022 356.662C377.805 349.986 378.705 343.195 380.494 336.715C380.69 336.012 381.735 336.157 381.725 336.891C381.673 342.368 382.335 347.908 383.617 353.272C384.114 355.34 387.123 355.122 387.32 353.004C387.971 346.193 389.191 339.433 390.867 332.787C391.053 332.064 392.108 332.198 392.108 332.942C392.108 340.425 393.039 347.95 394.497 355.319C394.869 357.19 397.465 357.407 398.116 355.608C400.35 349.5 403.804 340.539 406.286 336.622C410.216 330.4 428.449 322.08 433.475 324.157C438.501 326.235 440.404 334.803 438.077 347.557C441.097 343.536 443.62 339.206 445.068 334.4C447.561 326.131 447.064 316.478 442.896 308.912C442.596 308.364 443.196 307.775 443.744 308.065C445.254 308.861 446.681 309.739 447.912 310.824C448.791 311.6 450.156 310.886 450.001 309.718C448.564 298.959 445.203 288.221 439.825 278.825C439.484 278.226 440.218 277.596 440.756 278.03C441.376 278.526 441.997 279.022 442.617 279.518C443.517 280.241 444.83 279.487 444.644 278.34C443.341 270.071 443.258 261.689 443.61 253.297C443.765 249.617 446.806 246.703 450.487 246.692L458.544 246.672C463.053 246.661 467.468 245.359 471.264 242.93H471.285L469.795 244.77C467.644 247.447 464.407 249.007 460.974 249.018L454.231 249.038C450.622 249.038 447.561 251.757 447.188 255.353C446.113 265.689 447.095 283.528 454.531 307.796C463.818 338.089 427.818 371.67 408.841 371.721L322.776 371.959C322.776 371.959 318.64 372.393 315.527 371.535C334.556 361.138 356.584 355.257 378.002 356.673L378.022 356.662Z" fill="#CC7E48"/>
<path d="M415.025 222.001C419.224 220.523 423.423 224.099 422.906 228.522C422.068 235.737 423.971 243.23 426.236 250.248C428.987 258.775 432.306 267.405 431.913 276.355C431.603 283.373 428.863 290.236 424.364 295.621C422.068 298.37 417.9 298.608 415.294 296.148C410.889 291.983 406.628 287.456 404.425 282.03C401.788 275.539 401.808 268.273 402.305 261.296C402.998 251.643 404.714 242.072 407.486 232.791C408.551 229.236 409.937 225.597 412.781 223.241C413.422 222.714 414.188 222.3 415.015 222.001H415.025Z" fill="#E59B63"/>
<path d="M406.317 280.303C407.124 281.668 409.161 281.316 409.482 279.766C409.896 277.72 410.454 275.694 411.126 273.689C411.085 277.254 411.064 280.862 411.974 284.303C412.512 286.308 413.381 288.158 414.643 289.688C415.708 290.98 417.818 290.143 417.724 288.469C417.466 284.024 417.176 279.487 416.949 275.105C418.179 279.229 419.565 283.394 420.879 287.549C421.489 289.492 424.229 289.492 424.85 287.549C425.47 285.595 425.677 283.487 425.574 281.44C425.377 277.627 424.55 273.678 423.361 270.04C424.964 272.2 426.298 274.764 427.218 277.41C427.466 278.112 428.501 277.957 428.521 277.213C428.718 269.792 426.443 262.382 424.529 255.126C422.606 247.819 421.075 239.974 422.73 232.719C422.844 238.6 424.426 244.574 426.256 250.237C429.007 258.764 432.327 267.394 431.934 276.345C431.624 283.363 428.883 290.226 424.385 295.61C422.089 298.36 417.921 298.597 415.315 296.138C410.909 291.972 406.648 287.445 404.446 282.019C403.039 278.557 402.388 274.867 402.17 271.126C403.225 274.319 404.621 277.389 406.338 280.303H406.317Z" fill="#CC7E48"/>
<path d="M325 348.187L322.301 371.99C320.47 372.114 314.058 372.362 312.486 369.551C311.535 367.866 310.728 366.119 310.025 364.321C312.631 359.422 318.96 350.637 325 348.177V348.187Z" fill="#CC7E48"/>
<path d="M403.608 346.926L400.133 362.647C398.84 368.476 403.298 374.006 409.275 373.985L456.175 373.861C458.937 373.861 460.695 370.905 459.392 368.476L458.047 365.954C456.63 363.319 453.879 361.675 450.891 361.686L424.116 361.758C437.095 346.11 442.048 320.374 427.394 317.067C412.74 313.76 407.041 331.506 403.629 346.926H403.608Z" fill="#E59B63"/>
<path d="M455.658 367.659C455.11 366.585 454.345 365.696 453.538 365.034C454.51 365.406 455.534 366.171 456.289 367.277C457.044 368.373 457.53 369.789 457.499 371.246C457.478 372.166 457.251 373.055 456.878 373.861H455.917C456.268 373.034 456.485 372.135 456.506 371.225C456.537 369.985 456.206 368.734 455.658 367.659Z" fill="#CC7E48"/>
<path d="M451.759 371.897C451.976 370.812 451.873 369.665 451.542 368.641C451.211 367.618 450.663 366.729 450.043 366.037C450.849 366.502 451.646 367.318 452.152 368.404C452.659 369.479 452.876 370.801 452.618 372.073C452.494 372.714 452.256 373.313 451.966 373.871H451.035C451.356 373.251 451.625 372.59 451.749 371.897H451.759Z" fill="#CC7E48"/>
<path d="M335.621 321.883C346.397 317.625 359.686 320.808 367.37 329.48C375.054 338.151 376.605 351.722 371.073 361.903L382.314 361.872C385.013 361.872 387.392 363.629 388.168 366.212L389.44 370.471C389.977 372.248 388.643 374.047 386.782 374.047L322.735 374.223C317.057 374.233 313.034 368.569 315.051 363.267C318.412 354.399 325.01 348.187 325.01 348.187C321.835 336.281 325.3 326.379 335.631 321.883H335.621Z" fill="#E59B63"/>
<path d="M344.38 320.044C352.923 319.651 361.682 323.062 367.37 329.48C375.054 338.151 376.605 351.722 371.073 361.903L363.482 361.923C371.29 348.063 370.276 325.914 344.38 320.044Z" fill="#CC7E48"/>
<path d="M385.22 371.763C384.972 370.295 384.476 368.879 383.845 367.608C383.214 366.337 382.428 365.22 381.663 364.3C382.676 364.941 383.731 365.913 384.589 367.174C385.437 368.424 386.079 369.964 386.358 371.566C386.503 372.393 386.534 373.23 386.492 374.047H385.427C385.427 373.292 385.365 372.517 385.231 371.763H385.22Z" fill="#CC7E48"/>
<path d="M379.625 372.652C379.439 370.13 378.643 367.701 377.784 365.882C378.467 366.616 379.129 367.597 379.636 368.755C380.142 369.913 380.473 371.225 380.577 372.569C380.618 373.065 380.608 373.561 380.587 374.057H379.667C379.667 373.592 379.656 373.117 379.615 372.641L379.625 372.652Z" fill="#CC7E48"/>
<path d="M262.122 338.596C262.359 338.503 261.636 336.508 260.881 333.222C260.788 332.808 260.694 332.374 260.601 331.93C260.508 331.485 260.436 331.01 260.353 330.524C260.157 329.552 260.053 328.498 259.919 327.403C259.702 325.191 259.598 322.752 259.702 320.199C259.836 317.646 260.167 315.227 260.591 313.047C260.839 311.961 261.036 310.928 261.325 309.977C261.46 309.501 261.563 309.036 261.708 308.592C261.853 308.158 261.987 307.734 262.111 307.331C263.166 304.127 264.076 302.215 263.849 302.091C263.694 301.998 262.422 303.745 261.056 306.938C260.891 307.341 260.725 307.765 260.539 308.199C260.364 308.644 260.229 309.109 260.064 309.595C259.722 310.556 259.453 311.62 259.164 312.726C258.647 314.969 258.254 317.47 258.119 320.116C258.006 322.772 258.161 325.305 258.471 327.578C258.657 328.715 258.812 329.79 259.071 330.782C259.195 331.278 259.288 331.764 259.422 332.219L259.815 333.521C260.87 336.829 261.966 338.679 262.132 338.606L262.122 338.596Z" fill="#42416B"/>
<path d="M252.328 321.728C252.493 321.677 252.152 320.364 251.956 318.204C251.914 317.667 251.863 317.077 251.863 316.437C251.832 315.806 251.873 315.124 251.894 314.411C251.997 312.995 252.204 311.434 252.586 309.843C252.99 308.251 253.538 306.783 254.117 305.481C254.427 304.84 254.707 304.22 255.037 303.683C255.337 303.124 255.648 302.628 255.948 302.174C257.127 300.365 258.047 299.352 257.933 299.238C257.861 299.156 256.744 299.993 255.358 301.76C255.017 302.205 254.655 302.69 254.314 303.259C253.941 303.807 253.621 304.437 253.279 305.088C252.628 306.421 252.038 307.951 251.614 309.605C251.211 311.269 251.015 312.902 250.973 314.38C250.973 315.124 250.963 315.827 251.035 316.478C251.066 317.139 251.159 317.739 251.252 318.297C251.645 320.498 252.235 321.759 252.338 321.728H252.328Z" fill="#42416B"/>
<path d="M278.358 283.528C278.544 283.497 278.389 281.968 278.472 279.508C278.493 278.898 278.524 278.226 278.606 277.503C278.658 276.779 278.782 276.025 278.886 275.218C279.155 273.627 279.558 271.88 280.137 270.113C280.737 268.345 281.45 266.712 282.185 265.265C282.578 264.552 282.929 263.87 283.322 263.26C283.684 262.64 284.067 262.082 284.419 261.576C285.825 259.56 286.87 258.413 286.735 258.279C286.642 258.186 285.38 259.126 283.767 261.079C283.364 261.565 282.929 262.113 282.526 262.733C282.081 263.333 281.688 264.025 281.254 264.749C280.437 266.216 279.661 267.901 279.041 269.741C278.441 271.58 278.058 273.399 277.841 275.063C277.758 275.901 277.665 276.686 277.655 277.441C277.614 278.185 277.634 278.877 277.655 279.508C277.789 282.04 278.234 283.549 278.358 283.528Z" fill="#42416B"/>
<path d="M280.158 259.477C280.085 259.384 278.162 261.224 276.776 264.139C275.369 267.053 275.152 269.699 275.266 269.699C275.411 269.73 275.835 267.177 277.21 264.345C278.555 261.503 280.282 259.57 280.158 259.477Z" fill="#42416B"/>
<path d="M494.616 246.651C494.771 246.661 495.153 244.739 494.936 241.587C494.905 241.194 494.864 240.78 494.822 240.357C494.781 239.933 494.688 239.489 494.616 239.034C494.492 238.114 494.233 237.153 493.985 236.14C493.416 234.135 492.609 231.964 491.503 229.825C490.375 227.696 489.052 225.794 487.728 224.182C487.035 223.396 486.394 222.642 485.701 222.011C485.36 221.691 485.06 221.37 484.729 221.091C484.398 220.812 484.077 220.554 483.777 220.295C481.316 218.321 479.517 217.536 479.434 217.67C479.31 217.867 480.892 218.952 483.105 221.05C483.374 221.319 483.664 221.598 483.964 221.887C484.263 222.176 484.543 222.507 484.843 222.838C485.463 223.479 486.053 224.233 486.694 225.008C487.914 226.6 489.145 228.44 490.231 230.486C491.296 232.543 492.103 234.6 492.713 236.512C492.982 237.473 493.271 238.393 493.437 239.271C493.53 239.706 493.643 240.129 493.716 240.532C493.788 240.946 493.85 241.339 493.912 241.711C494.378 244.729 494.367 246.651 494.595 246.651H494.616Z" fill="#42416B"/>
<path d="M494.657 228.533C494.719 228.523 494.667 227.747 494.336 226.548C494.005 225.349 493.344 223.727 492.278 222.145C491.213 220.564 489.962 219.334 488.979 218.569C487.997 217.805 487.294 217.463 487.263 217.515C487.149 217.66 489.745 219.345 491.813 222.456C493.912 225.536 494.491 228.585 494.667 228.533H494.657Z" fill="#42416B"/>
<path d="M453.362 205.557C453.455 205.443 452.235 204.224 449.898 202.746C449.308 202.374 448.667 201.981 447.933 201.619C447.219 201.226 446.423 200.875 445.585 200.503C443.889 199.8 441.965 199.159 439.897 198.694C437.818 198.25 435.812 198.033 433.982 197.95C433.061 197.94 432.192 197.919 431.375 197.981C430.558 198.012 429.804 198.095 429.121 198.177C426.37 198.549 424.757 199.139 424.798 199.283C424.839 199.48 426.505 199.201 429.204 199.066C429.876 199.035 430.61 199.004 431.407 199.025C432.192 199.004 433.041 199.066 433.93 199.108C435.698 199.242 437.632 199.49 439.639 199.924C441.635 200.368 443.496 200.958 445.161 201.578C445.978 201.908 446.774 202.208 447.488 202.549C448.212 202.859 448.874 203.2 449.474 203.51C451.863 204.761 453.259 205.712 453.383 205.557H453.362Z" fill="#42416B"/>
<path d="M450.508 196.772C450.549 196.679 449.598 196.09 447.912 195.387C446.237 194.684 443.827 193.929 441.076 193.495C438.325 193.072 435.802 193.061 433.992 193.216C432.182 193.371 431.086 193.64 431.107 193.743C431.127 194.002 435.574 193.454 440.952 194.322C446.34 195.139 450.404 197.009 450.508 196.772Z" fill="#42416B"/>
<path d="M357.09 123.121C357.101 122.986 355.394 122.666 352.612 122.935C352.271 122.976 351.899 123.017 351.526 123.059C351.154 123.11 350.761 123.203 350.358 123.276C349.551 123.41 348.714 123.679 347.824 123.937C346.076 124.516 344.204 125.332 342.364 126.428C340.543 127.544 338.961 128.826 337.627 130.118C336.986 130.79 336.365 131.41 335.869 132.061C335.61 132.381 335.352 132.681 335.135 132.991C334.918 133.301 334.711 133.601 334.514 133.89C332.994 136.226 332.487 137.89 332.611 137.942C332.797 138.035 333.583 136.536 335.238 134.417C335.445 134.159 335.672 133.88 335.9 133.591C336.128 133.311 336.396 133.032 336.665 132.743C337.172 132.144 337.803 131.575 338.434 130.955C339.747 129.777 341.278 128.578 343.015 127.503C344.763 126.459 346.542 125.653 348.196 125.033C349.034 124.754 349.83 124.464 350.596 124.289C350.978 124.196 351.34 124.082 351.702 124.01C352.064 123.937 352.406 123.875 352.736 123.803C355.384 123.317 357.08 123.317 357.08 123.11L357.09 123.121Z" fill="#42416B"/>
<path d="M351.216 119.255C351.216 119.162 350.172 118.945 348.445 118.955C346.718 118.966 344.318 119.286 341.836 120.185C339.344 121.085 337.296 122.376 335.962 123.462C334.628 124.557 333.956 125.394 334.018 125.456C334.101 125.55 334.907 124.857 336.293 123.906C337.679 122.955 339.695 121.798 342.105 120.919C344.515 120.051 346.811 119.658 348.486 119.514C350.161 119.359 351.216 119.379 351.227 119.255H351.216Z" fill="#42416B"/>
<path d="M461.78 350.296C461.904 350.379 463.001 349.056 464.314 346.616C464.976 345.397 465.648 343.888 466.269 342.172C466.869 340.446 467.417 338.493 467.799 336.415C468.161 334.327 468.327 332.312 468.358 330.483C468.358 328.653 468.254 327 468.058 325.635C467.675 322.896 467.096 321.274 466.951 321.305C466.755 321.346 467.013 323.02 467.168 325.718C467.251 327.062 467.262 328.674 467.189 330.452C467.096 332.229 466.9 334.172 466.548 336.198C466.176 338.214 465.69 340.105 465.162 341.81C464.614 343.505 464.045 345.004 463.497 346.244C462.422 348.725 461.605 350.203 461.77 350.306L461.78 350.296Z" fill="#42416B"/>
<path d="M470.137 345.056C470.292 345.138 472.029 341.397 472.515 336.405C473.032 331.403 472.081 327.392 471.905 327.444C471.677 327.475 472.277 331.454 471.771 336.322C471.305 341.201 469.919 344.973 470.137 345.056Z" fill="#42416B"/>
<g clip-path="url(#clip0_1_2)" filter="url(#filter0_dd_1_2)">
<path d="M645.45 95.28C627.72 100.81 621.94 102.32 604.21 107.85C604.81 110.35 604.71 113.06 603.63 115.39C602.55 117.72 600.41 119.61 597.89 120.09C595.37 120.57 592.54 119.47 591.24 117.25C589.94 115.03 590.42 110.65 592.55 109.22C590.58 109.48 588.51 109.44 586.68 108.66C584.85 107.88 583.3 106.24 583.04 104.26C582.66 101.37 585.06 98.8 587.69 97.53C589.7 96.56 592.01 96.08 594.19 96.55C596.37 97.03 598.38 98.58 599.04 100.71C617.1 95.42 624.1 93.78 642.16 88.49C641.8 86.32 642.49 84.18 643.64 82.31C644.79 80.47 646.83 79.11 649.02 79C651.21 78.89 653.47 80.19 654.29 82.22C655.11 84.26 654.25 86.89 652.28 87.86C654.45 88.25 656.64 88.94 658.29 90.4C659.93 91.87 660.9 94.26 660.17 96.34C659.31 98.79 656.52 99.99 653.94 100.36C652.09 100.63 650.13 100.62 648.41 99.85C646.7 99.08 645.51 97.14 645.44 95.27L645.45 95.28Z" fill="white"/>
</g>
<g clip-path="url(#clip1_1_2)" filter="url(#filter1_dd_1_2)">
<path d="M314.625 460.432C299.968 464.994 295.19 466.24 280.533 470.802C281.029 472.865 280.947 475.101 280.054 477.023C279.161 478.946 277.392 480.505 275.309 480.901C273.226 481.297 270.886 480.389 269.812 478.558C268.737 476.726 269.134 473.113 270.895 471.933C269.266 472.147 267.555 472.114 266.042 471.471C264.529 470.827 263.248 469.474 263.033 467.841C262.719 465.456 264.703 463.336 266.877 462.288C268.539 461.488 270.448 461.092 272.25 461.479C274.052 461.876 275.714 463.154 276.26 464.912C291.189 460.547 296.976 459.194 311.905 454.83C311.608 453.039 312.178 451.274 313.129 449.731C314.079 448.213 315.766 447.091 317.576 447C319.386 446.909 321.255 447.982 321.933 449.657C322.61 451.34 321.9 453.51 320.271 454.31C322.065 454.632 323.875 455.201 325.239 456.405C326.595 457.618 327.397 459.59 326.793 461.306C326.082 463.328 323.776 464.318 321.643 464.623C320.114 464.846 318.494 464.837 317.072 464.202C315.658 463.567 314.674 461.966 314.617 460.423L314.625 460.432Z" fill="white"/>
</g>
<g clip-path="url(#clip2_1_2)">
<path d="M224.129 402.179C224.342 404.456 223.4 406.781 221.41 409.055C219.419 411.329 216.408 413.515 212.578 415.482C204.919 419.415 194.078 422.429 181.873 423.567C169.669 424.706 158.458 423.75 150.203 421.301C146.075 420.076 142.711 418.486 140.334 416.619C137.958 414.753 136.603 412.641 136.39 410.365C136.178 408.089 137.119 405.763 139.109 403.49C141.1 401.215 144.111 399.03 147.942 397.063C155.601 393.129 166.442 390.116 178.646 388.977C190.851 387.839 202.062 388.795 210.316 391.243C214.445 392.468 217.808 394.059 220.186 395.926C222.562 397.792 223.917 399.903 224.129 402.179Z" fill="#717BBC" stroke="white"/>
<path d="M204.038 441.06L203.801 441.727C203.53 442.491 202.95 443.051 202.287 443.449C201.608 443.856 200.806 444.06 200.086 444.164C199.032 444.334 197.876 444.277 196.891 443.824L196.887 443.822C196.016 443.412 195.446 442.539 195.279 441.637C190.946 442.624 187.931 442.977 184.93 443.218L184.925 443.219C181.896 443.433 178.846 443.534 174.358 443.285C174.113 444.488 173.534 445.648 172.55 446.505C171.429 447.502 169.785 447.933 168.269 447.587L168.26 447.586L168.252 447.583C166.741 447.183 165.427 445.919 165.341 444.349C165.292 443.554 165.655 442.662 166.155 441.977C166.395 441.643 166.692 441.318 167.031 441.061C166.906 440.998 166.784 440.931 166.664 440.86L166.657 440.855L166.65 440.851C166.194 440.558 165.772 440.204 165.423 439.776L165.418 439.771L165.418 439.77C164.721 438.891 164.398 437.627 164.833 436.5M204.038 441.06L165.3 436.68M204.038 441.06H203.921M204.038 441.06H203.921M164.833 436.5C164.833 436.5 164.834 436.5 164.834 436.499L165.3 436.68M164.833 436.5C164.833 436.501 164.833 436.501 164.833 436.501L165.3 436.68M164.833 436.5C165.148 435.679 165.782 435.106 166.473 434.754L166.476 434.753C167.175 434.403 167.952 434.251 168.683 434.24L168.69 434.24C169.245 434.24 169.802 434.316 170.337 434.469C170.882 434.625 171.404 434.873 171.873 435.25L171.876 435.253C172.676 435.906 173.307 436.912 173.375 438.038M165.3 436.68C165.56 436 166.09 435.51 166.7 435.2C167.32 434.89 168.02 434.75 168.69 434.74C169.2 434.74 169.71 434.81 170.2 434.95C170.69 435.09 171.15 435.31 171.56 435.64C172.38 436.31 172.97 437.37 172.87 438.49M173.375 438.038C173.225 438.024 173.074 438.008 172.921 437.993L172.87 438.49M173.375 438.038C177.588 438.452 180.588 438.476 183.581 438.37M173.375 438.038C173.385 438.201 173.383 438.367 173.368 438.534L172.87 438.49M172.87 438.49C177.35 438.95 180.48 438.98 183.6 438.87M203.921 441.06C204.004 439.957 203.386 438.894 202.587 438.243C202.586 438.243 202.586 438.242 202.586 438.242L202.27 438.63M203.921 441.06L199.784 437.02C199.961 437.059 200.141 437.103 200.321 437.151C200.21 437.304 200.081 437.444 199.934 437.568C200.774 437.773 201.593 438.071 202.27 438.63M202.27 438.63C202.996 439.221 203.502 440.148 203.418 441.06L202.27 438.63ZM183.581 438.37L200.16 434.61C199.72 433.59 198.65 432.99 197.64 432.99C197.14 433 196.66 433.16 196.23 433.44C195.8 433.7 195.43 434.07 195.15 434.52C194.59 435.42 194.21 436.44 194.31 437.53C189.86 438.47 186.72 438.74 183.6 438.87M183.581 438.37C183.581 438.37 183.582 438.37 183.582 438.37L183.6 438.87M183.581 438.37C183.58 438.37 183.58 438.37 183.579 438.37L183.6 438.87M133.826 417.158C136.628 420.573 141.473 423.347 147.988 425.279C157.404 428.072 169.581 428.952 182.266 427.768C194.952 426.584 206.757 423.471 215.498 418.985C221.531 415.889 225.779 412.268 227.905 408.401C229.351 411.389 230.906 414.828 232.193 418.201C233.616 421.93 234.699 425.541 234.962 428.357C235.218 431.091 234.085 433.875 231.711 436.586C229.336 439.298 225.749 441.899 221.193 444.238C212.084 448.914 199.196 452.497 184.693 453.852C170.191 455.203 156.865 454.068 147.048 451.158C142.139 449.703 138.133 447.81 135.297 445.584C132.463 443.359 130.834 440.831 130.578 438.094C130.319 435.278 130.717 431.53 131.426 427.6C132.067 424.044 132.959 420.371 133.826 417.158Z" fill="#717BBC" stroke="white"/>
</g>
<g clip-path="url(#clip3_1_2)" filter="url(#filter2_dd_1_2)">
<path d="M596.65 373.8C597.27 375.3 597.99 376.64 599.57 377.28C600.91 377.83 602.55 377.72 603.8 376.81C605.02 375.92 605.72 374.34 605.54 372.91C605.34 371.38 604.12 370.21 603.73 368.74C603.32 367.2 603.52 365.64 604.16 364.37C601.46 363.68 598.75 363.91 596.51 365.3C594.94 366.26 593.79 367.68 593.02 369.37C594.73 369.83 595.91 372.01 596.65 373.81V373.8Z" fill="white"/>
<path d="M604.55 367.53C604.66 369.19 605.84 370.34 606.39 371.85C607.13 373.9 606.25 376.37 604.36 377.73C602.3 379.21 599.44 378.92 597.7 377.42C596.61 376.49 596.11 375.21 595.6 373.92C595.08 372.58 594.12 370.47 592.65 370.31C591.81 372.77 591.69 375.72 592.85 378.5C593.92 381.06 595.99 382.94 598.61 383.72C601.21 384.5 604.35 384.15 607.08 382.46C609.81 380.77 611.54 378.13 612.01 375.46C612.49 372.77 611.74 370.08 609.94 367.97C608.61 366.41 606.92 365.35 605.17 364.71C604.7 365.53 604.48 366.51 604.55 367.54V367.53Z" fill="white"/>
</g>
<g clip-path="url(#clip4_1_2)" filter="url(#filter3_dd_1_2)">
<path d="M312.549 36.839C311.333 37.9131 310.3 39.0297 310.208 40.732C310.124 42.178 310.761 43.6931 312.028 44.5792C313.267 45.4435 314.988 45.5917 316.282 44.9564C317.664 44.2697 318.374 42.7356 319.637 41.8887C320.96 41.0002 322.5 40.6821 323.909 40.8743C323.684 38.0967 322.585 35.6087 320.542 33.9425C319.124 32.77 317.407 32.1443 315.558 31.9657C315.679 33.7324 314.002 35.5571 312.54 36.8423L312.549 36.839Z" fill="white"/>
<path d="M321.048 42.2707C319.514 42.9145 318.81 44.4044 317.561 45.4155C315.863 46.7819 313.241 46.753 311.34 45.408C309.271 43.9412 308.615 41.1424 309.468 39.0091C309.993 37.676 311.041 36.7869 312.095 35.8851C313.193 34.9576 314.876 33.3636 314.549 31.9215C311.95 31.9271 309.121 32.773 306.869 34.774C304.796 36.6183 303.692 39.1871 303.806 41.9184C303.914 44.6307 305.266 47.4862 307.752 49.5183C310.238 51.5503 313.297 52.3278 315.975 51.904C318.675 51.4831 320.974 49.8991 322.384 47.5108C323.427 45.7458 323.88 43.803 323.916 41.94C322.988 41.7622 321.989 41.8728 321.038 42.274L321.048 42.2707Z" fill="white"/>
</g>
<g clip-path="url(#clip5_1_2)">
<path d="M137.28 132.74C135.29 133.93 134.57 136.83 135.77 138.8C136.97 140.77 139.88 141.47 141.85 140.25C143.17 139.43 144.03 137.94 145.46 137.35C146.64 136.87 147.98 137.09 149.25 137.2C150.52 137.31 151.95 137.23 152.85 136.32C154.75 134.39 152.98 130.96 150.59 130.55C149.9 130.43 149.16 130.51 148.53 130.21C147.85 129.88 147.45 129.17 146.99 128.56C146.38 127.75 145.54 127.26 144.54 127.63C143.21 128.11 142.59 129.86 141.57 130.73C140.3 131.81 138.67 131.91 137.27 132.74H137.28Z" fill="#717BBC"/>
<path d="M136.67 124.33C136.36 123.45 136.18 122.43 136.61 121.6C137.16 120.52 138.58 120.13 139.76 120.4C141.51 120.8 142.88 122.5 142.89 124.29C142.9 125.84 141.65 127.94 140 128.24C138.39 128.53 137.09 125.52 136.67 124.33Z" fill="#717BBC"/>
<path d="M132.98 125.63C132.1 125.4 131.07 125.63 130.48 126.32C129.75 127.19 129.9 128.57 130.61 129.45C131.54 130.61 135.15 132.03 136.06 130.17C136.88 128.49 134.44 126.01 132.99 125.63H132.98Z" fill="#717BBC"/>
<path d="M147.66 126.01C146.95 125.85 146.49 125.15 146.29 124.45C145.88 122.94 146.65 119.79 148.72 120.01C150.67 120.22 150.76 122.72 150.18 124.08C149.78 125.02 148.84 126.27 147.66 126.01Z" fill="#717BBC"/>
<path d="M153.94 122.44C154.55 122.42 155.08 122.85 155.5 123.3C155.86 123.68 156.21 124.11 156.32 124.63C156.46 125.3 156.18 126 155.74 126.52C155.3 127.04 154.7 127.41 154.12 127.77C152.71 128.65 150.56 128.8 151.04 126.57C151.31 125.33 152.43 122.49 153.95 122.44H153.94Z" fill="#717BBC"/>
</g>
<g clip-path="url(#clip6_1_2)">
<path d="M541.842 444.362C539.551 444.72 537.796 447.138 538.17 449.414C538.545 451.691 540.98 453.43 543.264 453.038C544.795 452.772 546.151 451.713 547.698 451.702C548.971 451.699 550.131 452.405 551.268 452.983C552.404 453.561 553.759 454.023 554.935 453.517C557.42 452.44 557.064 448.596 555.002 447.32C554.408 446.95 553.691 446.747 553.22 446.233C552.713 445.672 552.608 444.864 552.41 444.126C552.149 443.147 551.553 442.377 550.488 442.346C549.075 442.292 547.844 443.682 546.572 444.107C544.99 444.632 543.441 444.114 541.832 444.358L541.842 444.362Z" fill="#717BBC"/>
<path d="M544.428 436.337C544.471 435.404 544.686 434.391 545.396 433.783C546.31 432.988 547.773 433.159 548.766 433.851C550.238 434.878 550.871 436.967 550.21 438.631C549.638 440.071 547.692 441.55 546.05 441.21C544.449 440.875 544.372 437.597 544.428 436.337Z" fill="#717BBC"/>
<path d="M540.52 436.159C539.79 435.616 538.749 435.443 537.943 435.861C536.941 436.394 536.562 437.73 536.891 438.812C537.318 440.236 540.133 442.906 541.674 441.522C543.064 440.272 541.731 437.058 540.529 436.163L540.52 436.159Z" fill="#717BBC"/>
<path d="M553.987 442.013C553.389 441.599 553.225 440.777 553.302 440.053C553.488 438.5 555.382 435.868 557.219 436.848C558.948 437.773 558.094 440.125 557.047 441.168C556.324 441.89 554.984 442.696 553.987 442.013Z" fill="#717BBC"/>
<path d="M561.148 441.057C561.721 441.267 562.051 441.864 562.272 442.439C562.463 442.926 562.626 443.456 562.533 443.979C562.412 444.653 561.89 445.197 561.287 445.514C560.684 445.831 559.99 445.95 559.317 446.066C557.68 446.353 555.63 445.687 556.911 443.799C557.626 442.751 559.729 440.537 561.157 441.061L561.148 441.057Z" fill="#717BBC"/>
</g>
<defs>
<filter id="filter0_dd_1_2" x="563" y="79" width="117.42" height="81.21" filterUnits="userSpaceOnUse" color-interpolation-filters="sRGB">
<feFlood flood-opacity="0" result="BackgroundImageFix"/>
<feColorMatrix in="SourceAlpha" type="matrix" values="0 0 0 0 0 0 0 0 0 0 0 0 0 0 0 0 0 0 127 0" result="hardAlpha"/>
<feMorphology radius="4" operator="erode" in="SourceAlpha" result="effect1_dropShadow_1_2"/>
<feOffset dy="8"/>
<feGaussianBlur stdDeviation="4"/>
<feColorMatrix type="matrix" values="0 0 0 0 0.0627451 0 0 0 0 0.0941176 0 0 0 0 0.156863 0 0 0 0.03 0"/>
<feBlend mode="normal" in2="BackgroundImageFix" result="effect1_dropShadow_1_2"/>
<feColorMatrix in="SourceAlpha" type="matrix" values="0 0 0 0 0 0 0 0 0 0 0 0 0 0 0 0 0 0 127 0" result="hardAlpha"/>
<feMorphology radius="4" operator="erode" in="SourceAlpha" result="effect2_dropShadow_1_2"/>
<feOffset dy="20"/>
<feGaussianBlur stdDeviation="12"/>
<feColorMatrix type="matrix" values="0 0 0 0 0.0627451 0 0 0 0 0.0941176 0 0 0 0 0.156863 0 0 0 0.08 0"/>
<feBlend mode="normal" in2="effect1_dropShadow_1_2" result="effect2_dropShadow_1_2"/>
<feBlend mode="normal" in="SourceGraphic" in2="effect2_dropShadow_1_2" result="shape"/>
</filter>
<filter id="filter1_dd_1_2" x="243" y="447" width="104" height="74" filterUnits="userSpaceOnUse" color-interpolation-filters="sRGB">
<feFlood flood-opacity="0" result="BackgroundImageFix"/>
<feColorMatrix in="SourceAlpha" type="matrix" values="0 0 0 0 0 0 0 0 0 0 0 0 0 0 0 0 0 0 127 0" result="hardAlpha"/>
<feMorphology radius="4" operator="erode" in="SourceAlpha" result="effect1_dropShadow_1_2"/>
<feOffset dy="8"/>
<feGaussianBlur stdDeviation="4"/>
<feColorMatrix type="matrix" values="0 0 0 0 0.0627451 0 0 0 0 0.0941176 0 0 0 0 0.156863 0 0 0 0.03 0"/>
<feBlend mode="normal" in2="BackgroundImageFix" result="effect1_dropShadow_1_2"/>
<feColorMatrix in="SourceAlpha" type="matrix" values="0 0 0 0 0 0 0 0 0 0 0 0 0 0 0 0 0 0 127 0" result="hardAlpha"/>
<feMorphology radius="4" operator="erode" in="SourceAlpha" result="effect2_dropShadow_1_2"/>
<feOffset dy="20"/>
<feGaussianBlur stdDeviation="12"/>
<feColorMatrix type="matrix" values="0 0 0 0 0.0627451 0 0 0 0 0.0941176 0 0 0 0 0.156863 0 0 0 0.08 0"/>
<feBlend mode="normal" in2="effect1_dropShadow_1_2" result="effect2_dropShadow_1_2"/>
<feBlend mode="normal" in="SourceGraphic" in2="effect2_dropShadow_1_2" result="shape"/>
</filter>
<filter id="filter2_dd_1_2" x="572" y="364" width="60.15" height="60.1" filterUnits="userSpaceOnUse" color-interpolation-filters="sRGB">
<feFlood flood-opacity="0" result="BackgroundImageFix"/>
<feColorMatrix in="SourceAlpha" type="matrix" values="0 0 0 0 0 0 0 0 0 0 0 0 0 0 0 0 0 0 127 0" result="hardAlpha"/>
<feMorphology radius="4" operator="erode" in="SourceAlpha" result="effect1_dropShadow_1_2"/>
<feOffset dy="8"/>
<feGaussianBlur stdDeviation="4"/>
<feColorMatrix type="matrix" values="0 0 0 0 0.0627451 0 0 0 0 0.0941176 0 0 0 0 0.156863 0 0 0 0.03 0"/>
<feBlend mode="normal" in2="BackgroundImageFix" result="effect1_dropShadow_1_2"/>
<feColorMatrix in="SourceAlpha" type="matrix" values="0 0 0 0 0 0 0 0 0 0 0 0 0 0 0 0 0 0 127 0" result="hardAlpha"/>
<feMorphology radius="4" operator="erode" in="SourceAlpha" result="effect2_dropShadow_1_2"/>
<feOffset dy="20"/>
<feGaussianBlur stdDeviation="12"/>
<feColorMatrix type="matrix" values="0 0 0 0 0.0627451 0 0 0 0 0.0941176 0 0 0 0 0.156863 0 0 0 0.08 0"/>
<feBlend mode="normal" in2="effect1_dropShadow_1_2" result="effect2_dropShadow_1_2"/>
<feBlend mode="normal" in="SourceGraphic" in2="effect2_dropShadow_1_2" result="shape"/>
</filter>
<filter id="filter3_dd_1_2" x="281.297" y="29.2549" width="65.5601" height="65.5912" filterUnits="userSpaceOnUse" color-interpolation-filters="sRGB">
<feFlood flood-opacity="0" result="BackgroundImageFix"/>
<feColorMatrix in="SourceAlpha" type="matrix" values="0 0 0 0 0 0 0 0 0 0 0 0 0 0 0 0 0 0 127 0" result="hardAlpha"/>
<feMorphology radius="4" operator="erode" in="SourceAlpha" result="effect1_dropShadow_1_2"/>
<feOffset dy="8"/>
<feGaussianBlur stdDeviation="4"/>
<feColorMatrix type="matrix" values="0 0 0 0 0.0627451 0 0 0 0 0.0941176 0 0 0 0 0.156863 0 0 0 0.03 0"/>
<feBlend mode="normal" in2="BackgroundImageFix" result="effect1_dropShadow_1_2"/>
<feColorMatrix in="SourceAlpha" type="matrix" values="0 0 0 0 0 0 0 0 0 0 0 0 0 0 0 0 0 0 127 0" result="hardAlpha"/>
<feMorphology radius="4" operator="erode" in="SourceAlpha" result="effect2_dropShadow_1_2"/>
<feOffset dy="20"/>
<feGaussianBlur stdDeviation="12"/>
<feColorMatrix type="matrix" values="0 0 0 0 0.0627451 0 0 0 0 0.0941176 0 0 0 0 0.156863 0 0 0 0.08 0"/>
<feBlend mode="normal" in2="effect1_dropShadow_1_2" result="effect2_dropShadow_1_2"/>
<feBlend mode="normal" in="SourceGraphic" in2="effect2_dropShadow_1_2" result="shape"/>
</filter>
<clipPath id="clip0_1_2">
<rect width="77.42" height="41.21" fill="white" transform="translate(583 79)"/>
</clipPath>
<clipPath id="clip1_1_2">
<rect width="64" height="34" fill="white" transform="translate(263 447)"/>
</clipPath>
<clipPath id="clip2_1_2">
<rect width="105.51" height="66.91" fill="white" transform="translate(130 388)"/>
</clipPath>
<clipPath id="clip3_1_2">
<rect width="20.15" height="20.1" fill="white" transform="translate(592 364)"/>
</clipPath>
<clipPath id="clip4_1_2">
<rect width="20.15" height="20.1" fill="white" transform="translate(320.305 29.2549) rotate(71.0229)"/>
</clipPath>
<clipPath id="clip5_1_2">
<rect width="26.35" height="20.86" fill="white" transform="translate(130 120)"/>
</clipPath>
<clipPath id="clip6_1_2">
<rect width="26.35" height="20.86" fill="white" transform="translate(539.867 429.822) rotate(22.0117)"/>
</clipPath>
</defs>
</svg>
